<svg xmlns="http://www.w3.org/2000/svg" width="22" height="22" fill="none"><g fill="#2091FF" clip-path="url(#a)"><path d="M9.16669 10.3889H11v1.2222H9.16669v-1.2222Z"/><path d="M16.1639 8.65945c-1.0838-1.77357-2.5624-3.27304-4.3206-4.38167-.8122-.51477-1.7381-.82289-2.69679-.89746-.95872-.07457-1.92112.08669-2.80317.46968-.77152.36392-1.44287.91018-1.95606 1.59159-.51319.68141-.8528 1.4775-.9895 2.31953-.04888.28722-.08555.56222-.12222.83111-.57215.09274-1.09274.38577-1.46885.8268-.3761.44103-.58325 1.00137-.58448 1.58097v3.7461c0 .3242.12877.635.35798.8643.22921.2292.54009.3579.86424.3579V11c0-.3241.12877-.635.35798-.8642.22921-.22925.54009-.35802.86424-.35802H15.1128c1.1778.00162 2.3069.47022 3.1397 1.30302.8329.8329 1.3014 1.962 1.3031 3.1398v.4461h-1.2223c-.2581-.6294-.7388-1.1417-1.3506-1.4392-.6117-.2975-1.3116-.3594-1.966-.1738-.6544.1856-1.2176.6057-1.5821 1.1801-.3645.5743-.5047 1.2628-.394 1.9339.1108.6712.4647 1.2781.9944 1.7049.5297.4268 1.198.6437 1.8773.6092.6794-.0345 1.3223-.3179 1.806-.7961.4838-.4783.7745-1.1179.8167-1.7968h1.0206c.3241 0 .635-.1288.8642-.358.2292-.2292.358-.5401.358-.8642v-.4461c-.0025-1.3189-.4645-2.5956-1.3066-3.6106-.8421-1.01494-2.0116-1.70469-3.3073-1.95055Zm-9.44167-.10389H4.23501c0-.18944.055-.385.09166-.61111.10559-.67133.38112-1.3045.80041-1.83931.4193-.53482.96841-.9535 1.59515-1.21625v3.66667Zm1.22222 0V4.63223c1.14092-.14816 2.29795.10225 3.27555.70889 1.3345.83122 2.4863 1.9248 3.3856 3.21444H7.94445Zm7.82225 8.78774c-.3022 0-.5976-.0896-.8488-.2574-.2513-.1679-.4471-.4065-.5627-.6857-.1156-.2792-.1459-.5863-.0869-.8827.0589-.2964.2044-.5686.4181-.7822.2136-.2137.4859-.3592.7822-.4182.2964-.0589.6036-.0287.8827.087.2792.1156.5178.3114.6857.5627.1678.2512.2575.5466.2575.8488 0 .4052-.161.7937-.4475 1.0803-.2865.2865-.6751.4474-1.0803.4474Z"/><path d="M8.65944 14.6667c-.2581-.6294-.73889-1.1417-1.35063-1.4392-.61173-.2975-1.31159-.3594-1.96602-.1738-.65443.1856-1.21762.6057-1.5821 1.1801-.36447.5743-.50472 1.2628-.39398 1.9339.11074.6712.46472 1.2781.99439 1.7049.52967.4268 1.19795.6437 1.87732.6092.67937-.0345 1.32226-.3179 1.806-.7961.48374-.4783.77446-1.1179.81669-1.7968H12.1v-.1528c-.0121-.3605.0291-.7209.1222-1.0694H8.65944Zm-2.54833 2.6766c-.30217 0-.59755-.0896-.84879-.2574-.25124-.1679-.44706-.4065-.5627-.6857-.11563-.2792-.14588-.5863-.08693-.8827.05895-.2964.20445-.5686.41812-.7822.21366-.2137.48588-.3592.78224-.4182.29636-.0589.60355-.0287.88271.087.27917.1156.51777.3114.68565.5627.16787.2512.25748.5466.25748.8488 0 .4051-.16097.7937-.44748 1.0803-.28651.2865-.67511.4474-1.0803.4474Z"/></g><defs><clipPath id="a"><path fill="#fff" d="M0 0h22v22H0z"/></clipPath></defs></svg>