<svg xmlns="http://www.w3.org/2000/svg" width="22" height="22" fill="none"><path fill="#2091FF" d="M14.6318 15.3725c.5641 0 1.0456.1995 1.4447.5986.3997.3997.5995.8815.5995 1.4456 0 .564-.1998 1.0459-.5995 1.4456-.3991.3996-.8806.5995-1.4447.5995-.4748 0-.9014-.1476-1.2796-.4428-.3777-.2952-.6069-.6765-.6875-1.144H6.03165l-1.1165 1.7765-.80483-.4913 4.26525-6.5945c-.99367-.3514-1.81255-.9066-2.45667-1.6656-.6435-.7584-1.05355-1.64176-1.23016-2.6501H15.4779c-.1766 1.00834-.5839 1.8917-1.2219 2.6501-.638.759-1.4542 1.3142-2.4484 1.6656l1.5308 2.4291c-.1674.0941-.3013.1794-.4015.2558-.1008.0764-.2148.1815-.3419.3153l-1.727-2.7784c-.099.0306-.22.0458-.363.0458h-.82501c-.132 0-.2472-.0152-.34559-.0458l-2.70966 4.1708h6.03896c.0813-.4675.3108-.8488.6885-1.144.3782-.2951.8048-.4427 1.2796-.4427m0 3.1735c.3178 0 .5855-.1085.803-.3254.2164-.217.3245-.4846.3245-.803 0-.3184-.1081-.5861-.3245-.803-.2169-.217-.4846-.3254-.803-.3254-.319 0-.5866.1084-.803.3254-.2169.2169-.3254.4846-.3254.803 0 .3184.1085.586.3254.803.2164.2169.484.3254.803.3254Zm-4.5485-6.611c.9399 0 1.7851-.2579 2.5355-.7737.7505-.5158 1.3109-1.18034 1.6812-1.99373H5.86665c.374.81278.93531 1.47733 1.68392 1.99373.74861.5164 1.59286.7743 2.53273.7737ZM7.92915 6.62842c.06478-.41983.05317-.78253-.03483-1.08808-.08739-.30556-.27378-.63342-.55917-.98359-.30555-.39722-.50508-.76664-.59858-1.10825-.0935-.341-.10205-.73822-.02567-1.19166h.45834c-.06478.41922-.05317.78069.03483 1.08441.08739.30372.27378.63067.55917.98084.30922.39722.50966.76663.60133 1.10825.09167.34161.09931.74097.02292 1.19808h-.45834Zm2.27335 0c.0654-.41983.055-.78253-.0312-1.08808-.0855-.30556-.27131-.63342-.55731-.98359-.30861-.39355-.50967-.76114-.60317-1.10275-.0935-.341-.10205-.74005-.02567-1.19716h.45834c-.06478.41922-.05347.78069.03391 1.08441.088.30372.2747.63067.5601.98084.3055.39416.5051.76175.5986 1.10275.0935.34161.102.7428.0256 1.20358h-.4592Zm2.31 0c.0648-.41983.0541-.78253-.0321-1.08808-.0856-.30556-.271-.63342-.5564-.98359-.3092-.39355-.5106-.76114-.6041-1.10275-.0935-.341-.1021-.74005-.0257-1.19716h.4584c-.0648.41922-.0532.78069.0348 1.08441.0874.30372.2738.63067.5592.98084.3055.39416.5051.76175.5986 1.10275.0935.34161.102.7428.0256 1.20358h-.4583Z"/></svg>