<svg xmlns="http://www.w3.org/2000/svg" width="22" height="22" fill="none"><path stroke="#2091FF" stroke-linecap="round" stroke-linejoin="round" stroke-width="2" d="M5.50001 11H3.66668c-.48623 0-.95255-.1932-1.29637-.537-.34381-.3438-.53697-.8101-.53697-1.29633V4.58333c0-.48623.19316-.95254.53697-1.29636.34382-.34382.81014-.53697 1.29637-.53697H18.3333c.4863 0 .9526.19315 1.2964.53697.3438.34382.537.81013.537 1.29636v4.58334c0 .48623-.1932.95253-.537 1.29633s-.8101.537-1.2964.537H16.5M5.50001 7.33333H16.5m.275 8.89167c.3879.4055.6134.9392.634 1.5.0206.5608-.1653 1.1096-.5225 1.5424-.3571.4328-.8606.7196-1.415.8059-.5545.0864-1.1213-.0337-1.5932-.3375-.3067-.2011-.5614-.4722-.7431-.7909-.1816-.3187-.2851-.6759-.3019-1.0424V11m-6.78329 3.3c-.2166.2124-.37713.4752-.46718.7648-.09005.2897-.10681.5972-.04879.895.05803.2977.18903.5764.38126.8111.19223.2346.43968.4179.72018.5334.2805.1155.58528.1596.88701.1284.30173-.0313.59099-.137.84185-.3075.25085-.1706.45547-.4007.5955-.6698.14003-.2691.2111-.5687.20684-.8721V11"/></svg>