<svg xmlns="http://www.w3.org/2000/svg" width="22" height="22" fill="none"><path fill="#2091FF" d="M11.4583 1.375c-1.62247 0-3.05247 1.0725-3.5108 2.63083-.48583-.22-.99917-.33916-1.53083-.33916-.97246 0-1.9051.3863-2.59273 1.07394C3.13631 5.42824 2.75 6.36087 2.75 7.33333c.00217.81202.27316 1.60046.77066 2.24223.4975.64174 1.1935 1.10074 1.97934 1.30524v6.5359h11.9167v-6.5359c1.6133-.4216 2.75-1.87913 2.75-3.54747 0-.97246-.3863-1.90509-1.074-2.59272-.6876-.68764-1.6202-1.07394-2.5927-1.07394-.5317 0-1.045.11916-1.5308.33916C14.5108 2.4475 13.0808 1.375 11.4583 1.375ZM11 9.625h.9167v6.4167H11V9.625Zm-2.75 1.8333h.91667v4.5834H8.25v-4.5834Zm5.5 0h.9167v4.5834H13.75v-4.5834Zm-8.25 6.875v.9167c0 .2431.09658.4763.26849.6482.1719.1719.40506.2685.64818.2685H16.5c.2431 0 .4763-.0966.6482-.2685s.2685-.4051.2685-.6482v-.9167H5.5Z"/></svg>