<svg xmlns="http://www.w3.org/2000/svg" width="22" height="22" fill="none"><path fill="#2091FF" d="M3.66665 4.58334c-.48623 0-.95255.19316-1.29637.53697-.34381.34382-.53697.81014-.53697 1.29637v9.16662c0 .4863.19316.9526.53697 1.2964.34382.3438.81014.537 1.29637.537H18.3333c.4862 0 .9526-.1932 1.2964-.537s.5369-.8101.5369-1.2964V6.41668c0-.48623-.1931-.95255-.5369-1.29637-.3438-.34381-.8102-.53697-1.2964-.53697H3.66665Zm0 1.83334H14.6666v9.16662H3.66665V6.41668Zm13.74995 0c.2432 0 .4763.09657.6482.26848s.2685.40507.2685.64818c0 .24312-.0966.47628-.2685.64818-.1719.17191-.405.26849-.6482.26849-.2431 0-.4762-.09658-.6481-.26849-.1719-.1719-.2685-.40506-.2685-.64818 0-.24311.0966-.47627.2685-.64818.1719-.17191.405-.26848.6481-.26848ZM5.49998 8.25001v1.83329h7.33332V8.25001H5.49998ZM17.4166 10.0833c.2432 0 .4763.0966.6482.2685s.2685.4051.2685.6482c0 .2431-.0966.4763-.2685.6482s-.405.2685-.6482.2685c-.2431 0-.4762-.0966-.6481-.2685S16.5 11.2431 16.5 11c0-.2431.0966-.4763.2685-.6482s.405-.2685.6481-.2685Z"/></svg>