<svg xmlns="http://www.w3.org/2000/svg" width="22" height="22" fill="none"><g clip-path="url(#a)"><path fill="#2091FF" d="M7.43424.985534.988281 8.10159V21.0117H21.0117V8.11439L15.3109.988284c-2.6255-.014438-5.2513.021136-7.87662-.00275h-.00004Zm.99653.776186h3.07083l4.8813 6.10156h-2.4607L8.43077 1.76172Zm4.06143 0h2.4469l4.8813 6.10156h-2.4471l-4.8811-6.10156Zm-4.9297.19143 5.8008 6.44522V20.2383H1.76172V8.39837L7.5625 1.95315Zm2.00561 4.49719c-1.20433.05212-2.15231.57209-2.86228 1.25937-.8207.7945-1.31115 1.81995-1.45406 2.54729-.31105 1.5831.42144 2.6582 1.33504 3.027.00086-.0086.0021-.0075.00008-.0103-.32256-1.6692.17678-3.2617 1.23407-4.31639-.79858 1.22749-.90209 3.04369-.4168 4.46669.2056-.0122.40715-.0625.59443-.1482.44327-.2032.84283-.6163 1.09201-1.3119.26546-.7411.03794-1.9354-.05337-3.07014-.04563-.56732-.05431-1.12355.0813-1.62005.08353-.30564.22889-.58867.44958-.82337Zm4.56859 2.18638h2.6641v4.72658h-2.6641V8.63672Zm3.4375 0h2.6641v4.72658h-2.6641V8.63672ZM3.35904 10.4634c-.68097.765-.93522 1.6515-.94909 2.4974-.01633.9965.31466 1.9333.67366 2.4681.77485 1.1541 1.87872 1.3621 2.66153 1.0441-1.22435-.8357-1.89578-2.1267-1.89415-3.4309.26413 1.249 1.31424 2.4325 2.48858 3.0181.11985-.1342.21348-.2897.27603-.4585.14643-.3942.13922-.8898-.13531-1.4711-.28983-.6136-1.16884-1.2146-1.93097-1.8634-.38109-.3244-.73296-.6658-.95932-1.0624-.12947-.2269-.21257-.4769-.23096-.7414Zm9.29006 1.6064c-.1482.2201-.3449.3957-.5706.5275-.3943.2303-.8696.3497-1.3617.44-.98442.1808-2.04575.2615-2.60344.6478-.5283.3661-.78315.7921-.8534 1.2068-.03007.1773-.0266.3588.01022.5349 1.30986.0801 2.81072-.4197 3.66382-1.3693-.6503 1.1302-1.87709 1.9125-3.35496 2.024.51898.6669 1.57825 1.039 2.82606.427.5782-.2835 1.3337-.9294 1.8177-1.8005.4108-.7396.6336-1.635.4263-2.6382Zm1.4876 2.0669h2.6641v6.1016h-2.6641v-6.1016Zm3.4375 0h2.6641v6.1016h-2.6641v-6.1016ZM6.52983 16.6556c-.14171.9905.22043 1.9344.22065 2.6285l.77343-.0003c-.00025-.9155-.33-1.8091-.22846-2.5186-.18683-.2656-.39665-.305-.76562-.1096Z"/></g><defs><clipPath id="a"><path fill="#fff" d="M0 0h22v22H0z"/></clipPath></defs></svg>