<svg xmlns="http://www.w3.org/2000/svg" width="22" height="22" fill="none"><path fill="#2091FF" d="M14.85 3.29999c.6982-.00011 1.3703.26535 1.88.74254.5096.47719.8187 1.13037.8645 1.82706l.0055.1804v2.805c.5894.12055 1.1231.43098 1.5192.88376.3962.45275.633 1.02295.6742 1.62315l.0066.1881v6.6c.0003.1374-.0509.27-.1435.3716-.0926.1015-.2199.1647-.3568.1772-.1369.0124-.2734-.0269-.3828-.1102-.1094-.0832-.1836-.2044-.2081-.3396L18.7 18.15V15.4H3.30001v2.75c.00026.1374-.05096.27-.14356.3716-.09259.1015-.21986.1647-.35674.1772-.13688.0124-.27345-.0269-.38281-.1102-.10937-.0832-.1836-.2044-.20809-.3396l-.0088-.099v-6.6c-.00013-.634.21878-1.2485.61968-1.73961.4009-.4911.95917-.82861 1.58032-.9554v-2.805c-.00011-.69819.26536-1.37028.74255-1.87995.47718-.50967 1.13037-.81875 1.82705-.86455l.1804-.0055H14.85Zm2.2 6.6H4.95001c-.41-.00001-.80531.15261-1.10892.42821-.3036.2755-.49374.6542-.53338 1.0623l-.0077.1595v2.75H18.7v-2.75c0-.41-.1526-.8053-.4282-1.1089-.2755-.3036-.6542-.49378-1.0623-.53341l-.1595-.0077Zm-2.2-5.5H7.15001c-.41017.00002-.80563.15281-1.10926.42858-.30363.27577-.49366.65474-.53304 1.06302l-.0077.1584v2.75h1.1v-.55c0-.14587.05795-.28577.16109-.38891.10315-.10315.24304-.16109.38891-.16109h2.75c.14589 0 .28579.05794.38889.16109.1032.10314.1611.24304.1611.38891v.55h1.1v-.55c0-.14587.058-.28577.1611-.38891.1031-.10315.243-.16109.3889-.16109h2.75c.1459 0 .2858.05794.3889.16109.1032.10314.1611.24304.1611.38891v.55h1.1v-2.75c0-.41-.1526-.80532-.4282-1.10892-.2755-.3036-.6542-.49375-1.0623-.53338l-.1595-.0077Z"/></svg>