<svg xmlns="http://www.w3.org/2000/svg" width="22" height="22" fill="none"><path fill="#2091FF" d="m18.6773 11.6119-3.7448-2.6744 3.7448-2.67506 1.7305.57681.4345-1.30419-1.5923-.53075V3.4375h-1.375v1.70844l-3.4375 2.45575V3.68981L16.1941 2.519l-.7632-1.144L13.75 2.49563 12.0691 1.375l-.7632 1.144 1.7566 1.17081v3.91188L11 6.12837v1.68988l1.5675 1.11925L11 10.0568v1.6898l2.0625-1.4733v4.6475L15.4309 16.5l.7632-1.144-1.7566-1.1708v-3.9119l3.4375 2.4558v1.7084h1.375v-1.5668l1.5923-.5315-.4345-1.3041-1.7305.5768ZM8.25 15.8125c0 .547-.2173 1.0716-.60409 1.4584-.3868.3868-.9114.6041-1.45841.6041s-1.07161-.2173-1.45841-.6041c-.38679-.3868-.60409-.9114-.60409-1.4584H8.25Z"/><path fill="#2091FF" d="M6.18749 20.625c-.94739.0011-1.87398-.2778-2.66342-.8016-.78943-.5238-1.40652-1.2691-1.77377-2.1424-.36725-.8733-.46828-1.8357-.29043-2.7662.17786-.9306.62668-1.7879 1.29012-2.4642V4.8125c0-.91168.36216-1.78602 1.00682-2.43068.64465-.64466 1.519-1.00682 2.43068-1.00682.91168 0 1.78602.36216 2.43068 1.00682.64465.64466 1.00682 1.519 1.00682 2.43068v7.6381c.66341.6763 1.11221 1.5336 1.29011 2.4642.1779.9305.0768 1.8929-.2904 2.7662-.3673.8733-.98436 1.6186-1.7738 2.1424-.78943.5238-1.71602.8027-2.66341.8016Zm0-17.875c-.54684.00055-1.07113.21802-1.45781.6047-.38667.38667-.60415.91096-.60469 1.4578v8.2383l-.22825.2056c-.51915.464-.88515 1.0747-1.04955 1.7513-.16441.6766-.11947 1.3872.12886 2.0377.24833.6505.68835 1.2102 1.26182 1.6051.57346.3949 1.25333.6064 1.94962.6064.69628 0 1.37615-.2115 1.94962-.6064.57346-.3949 1.01348-.9546 1.26181-1.6051.24834-.6505.29327-1.3611.12887-2.0377-.16441-.6766-.53041-1.2873-1.04955-1.7513l-.22825-.2056V4.8125c-.00055-.54684-.21802-1.07113-.6047-1.4578-.38667-.38668-.91096-.60415-1.4578-.6047Z"/></svg>